<svg width="72" height="75" viewBox="0 0 72 75" fill="none" xmlns="http://www.w3.org/2000/svg">
<circle cx="35.6869" cy="38.9734" r="32.3821" stroke="black" stroke-width="6.60971"/>
<path d="M37.0312 53.6698V47.6824H44.7467V53.6698H37.0312Z" fill="black"/>
<path d="M25.3015 61.8752V55.8878H44.7468V61.8752H25.3015Z" fill="black"/>
<path d="M31.8101 43.049V35.859H35.8365C37.447 35.859 38.6358 35.3222 39.4027 34.2485C40.1696 33.1364 40.5531 31.315 40.5531 28.7841C40.5531 26.56 40.1888 24.9111 39.4602 23.8374C38.7316 22.7253 37.6004 22.1693 36.0665 22.1693H31.8101V15.0368H37.0444C38.5016 15.0368 39.9779 15.3052 41.4734 15.8421C42.9689 16.3406 44.3494 17.1459 45.6149 18.2579C46.9187 19.37 47.954 20.8272 48.7209 22.6295C49.4879 24.3934 49.8713 26.5408 49.8713 29.0717C49.8713 32.1394 49.2578 34.7278 48.0307 36.8369C46.8036 38.9076 45.078 40.4606 42.8539 41.496C40.6681 42.5314 38.0989 43.049 35.1462 43.049H31.8101ZM25.3103 53V15.0368H34.2259V53H25.3103Z" fill="black"/>
</svg>
