<svg width="137" height="22" viewBox="0 0 137 22" fill="none" xmlns="http://www.w3.org/2000/svg">
<path d="M0.00220973 16.5164V0.344016H5.62238C7.19756 0.344016 8.40571 0.688109 9.24682 1.37629C10.0879 2.06448 10.5085 3.02794 10.5085 4.26667C10.5085 4.78663 10.4014 5.27601 10.1873 5.7348C9.98853 6.17829 9.69032 6.55297 9.2927 6.85883C8.91038 7.16469 8.421 7.38644 7.82458 7.52408V7.54702C8.61981 7.63877 9.31564 7.86817 9.91207 8.2352C10.5238 8.60223 10.9979 9.08396 11.3343 9.68039C11.6708 10.2768 11.839 10.9726 11.839 11.7679C11.839 13.2513 11.3267 14.4136 10.302 15.2547C9.27741 16.0958 7.84752 16.5164 6.01236 16.5164H0.00220973ZM2.3191 15.7135L1.26388 14.6812H5.89766C7.07522 14.6812 7.96221 14.4365 8.55864 13.9471C9.15507 13.4425 9.45328 12.6931 9.45328 11.6991C9.45328 10.705 9.13977 9.96331 8.51276 9.47393C7.90104 8.96927 6.98346 8.71693 5.76002 8.71693H1.76855V6.95059H5.37005C6.24175 6.95059 6.92994 6.74413 7.4346 6.33122C7.93927 5.90302 8.19161 5.31424 8.19161 4.56488C8.19161 3.78494 7.94692 3.18851 7.45754 2.7756C6.96817 2.3474 6.29528 2.1333 5.43887 2.1333H1.26388L2.3191 1.10102V15.7135ZM17.5274 16.7916C16.3652 16.7916 15.417 16.4858 14.6829 15.8741C13.9489 15.247 13.5819 14.4212 13.5819 13.3966C13.5819 12.3872 13.9259 11.5767 14.6141 10.965C15.3023 10.3533 16.2199 9.94037 17.3669 9.72627L22.1383 8.80869V10.3915L18.2615 11.1485C17.4816 11.3167 16.8851 11.5691 16.4722 11.9055C16.0593 12.2267 15.8529 12.6855 15.8529 13.2819C15.8529 13.8477 16.044 14.2912 16.4263 14.6124C16.824 14.9182 17.3669 15.0712 18.0551 15.0712C18.6668 15.0712 19.1944 14.9488 19.6379 14.7041C20.0967 14.4442 20.4484 14.0848 20.6931 13.626C20.9531 13.1519 21.0831 12.6166 21.0831 12.0202V8.64811C21.0831 7.88346 20.8766 7.28704 20.4637 6.85883C20.0508 6.41534 19.4544 6.19359 18.6744 6.19359C17.9404 6.19359 17.3516 6.36946 16.9081 6.7212C16.4799 7.05764 16.1817 7.55466 16.0134 8.21226L13.903 7.73053C14.1477 6.72119 14.6906 5.91067 15.5317 5.29895C16.3881 4.68723 17.451 4.38137 18.7203 4.38137C20.2343 4.38137 21.3736 4.76369 22.1383 5.52834C22.9029 6.29299 23.2853 7.3635 23.2853 8.73987V14.1307L24.1799 16.5164H21.863L21.2895 14.9106H21.2436C20.8919 15.4917 20.3949 15.9505 19.7526 16.287C19.1256 16.6234 18.3838 16.7916 17.5274 16.7916ZM31.299 16.7916C30.2285 16.7916 29.2651 16.5469 28.4086 16.0576C27.5522 15.5682 26.8717 14.8647 26.367 13.9471C25.8777 13.0143 25.633 11.8902 25.633 10.575C25.633 9.25983 25.8777 8.14344 26.367 7.22586C26.8717 6.30828 27.5522 5.60481 28.4086 5.11543C29.2651 4.62605 30.2285 4.38137 31.299 4.38137C32.5683 4.38137 33.6159 4.65664 34.4417 5.20719C35.2676 5.75774 35.8793 6.59885 36.2769 7.73053L34.2812 8.44166C33.9906 7.66171 33.593 7.10352 33.0883 6.76707C32.5989 6.43063 31.9872 6.26241 31.2531 6.26241C30.672 6.26241 30.1215 6.41534 29.6015 6.7212C29.0968 7.01176 28.6839 7.4782 28.3628 8.1205C28.0569 8.74752 27.904 9.56569 27.904 10.575C27.904 11.5844 28.0569 12.4102 28.3628 13.0525C28.6839 13.6948 29.0968 14.1689 29.6015 14.4747C30.1215 14.7653 30.6797 14.9106 31.2761 14.9106C32.0101 14.9106 32.6219 14.7424 33.1112 14.4059C33.6006 14.0542 33.9982 13.4883 34.3041 12.7084L36.2769 13.4195C35.8946 14.5359 35.2828 15.377 34.4417 15.9429C33.6159 16.5087 32.5683 16.7916 31.299 16.7916ZM39.6345 13.0754V9.68039H40.4832L45.6446 4.65664H48.3974L43.4195 9.51981L43.0525 9.79509L39.6345 13.0754ZM38.2581 16.5164V0.183441H40.4603V16.5164H38.2581ZM46.0805 16.5164L42.089 9.68039L43.4883 7.91405L48.6268 16.5164H46.0805ZM60.5008 16.7458C59.4456 16.7458 58.6427 16.4781 58.0922 15.9429C57.5569 15.3923 57.2893 14.5665 57.2893 13.4654V1.99566L59.4915 0.711049V13.0984C59.4915 13.6948 59.6215 14.1307 59.8814 14.4059C60.1414 14.6812 60.5238 14.8188 61.0284 14.8188C61.1813 14.8188 61.3496 14.8035 61.5331 14.773C61.7319 14.7424 61.9384 14.6812 62.1525 14.5894V16.4705C61.8772 16.5622 61.6096 16.6311 61.3496 16.6769C61.0896 16.7228 60.8067 16.7458 60.5008 16.7458ZM54.9495 6.42298V4.65664H62.2442V6.42298H54.9495ZM69.4521 16.7916C68.3662 16.7916 67.3799 16.5469 66.4929 16.0576C65.6212 15.5529 64.933 14.8418 64.4283 13.9242C63.9236 12.9913 63.6713 11.8826 63.6713 10.598C63.6713 9.31336 63.9236 8.21226 64.4283 7.29468C64.933 6.36181 65.6212 5.64304 66.4929 5.13837C67.3799 4.6337 68.3662 4.38137 69.4521 4.38137C70.5531 4.38137 71.5395 4.6337 72.4112 5.13837C73.2982 5.64304 73.9941 6.36181 74.4987 7.29468C75.0034 8.21226 75.2557 9.31336 75.2557 10.598C75.2557 11.8826 75.0034 12.9913 74.4987 13.9242C73.9941 14.8418 73.3059 15.5529 72.4342 16.0576C71.5625 16.5469 70.5684 16.7916 69.4521 16.7916ZM69.4521 14.9106C70.1096 14.9106 70.6984 14.7577 71.2184 14.4518C71.7536 14.1307 72.1742 13.6489 72.4801 13.0066C72.8012 12.3643 72.9618 11.5614 72.9618 10.598C72.9618 9.61922 72.8012 8.80869 72.4801 8.16638C72.1742 7.52408 71.7536 7.04999 71.2184 6.74413C70.6984 6.42298 70.1096 6.26241 69.4521 6.26241C68.8097 6.26241 68.221 6.42298 67.6857 6.74413C67.1505 7.04999 66.7223 7.52408 66.4011 8.16638C66.0952 8.80869 65.9423 9.61922 65.9423 10.598C65.9423 11.5614 66.0952 12.3643 66.4011 13.0066C66.7223 13.6489 67.1505 14.1307 67.6857 14.4518C68.221 14.7577 68.8097 14.9106 69.4521 14.9106ZM87.607 16.7458C86.5518 16.7458 85.7489 16.4781 85.1984 15.9429C84.6631 15.3923 84.3955 14.5665 84.3955 13.4654V1.99566L86.5977 0.711049V13.0984C86.5977 13.6948 86.7277 14.1307 86.9877 14.4059C87.2477 14.6812 87.63 14.8188 88.1347 14.8188C88.2876 14.8188 88.4558 14.8035 88.6393 14.773C88.8381 14.7424 89.0446 14.6812 89.2587 14.5894V16.4705C88.9834 16.5622 88.7158 16.6311 88.4558 16.6769C88.1958 16.7228 87.9129 16.7458 87.607 16.7458ZM82.0557 6.42298V4.65664H89.3504V6.42298H82.0557ZM96.5583 16.7916C95.4725 16.7916 94.4861 16.5469 93.5991 16.0576C92.7274 15.5529 92.0392 14.8418 91.5345 13.9242C91.0299 12.9913 90.7775 11.8826 90.7775 10.598C90.7775 9.31336 91.0299 8.21226 91.5345 7.29468C92.0392 6.36181 92.7274 5.64304 93.5991 5.13837C94.4861 4.6337 95.4725 4.38137 96.5583 4.38137C97.6594 4.38137 98.6458 4.6337 99.5175 5.13837C100.404 5.64304 101.1 6.36181 101.605 7.29468C102.11 8.21226 102.362 9.31336 102.362 10.598C102.362 11.8826 102.11 12.9913 101.605 13.9242C101.1 14.8418 100.412 15.5529 99.5404 16.0576C98.6687 16.5469 97.6747 16.7916 96.5583 16.7916ZM96.5583 14.9106C97.2159 14.9106 97.8047 14.7577 98.3246 14.4518C98.8599 14.1307 99.2804 13.6489 99.5863 13.0066C99.9074 12.3643 100.068 11.5614 100.068 10.598C100.068 9.61922 99.9074 8.80869 99.5863 8.16638C99.2804 7.52408 98.8599 7.04999 98.3246 6.74413C97.8047 6.42298 97.2159 6.26241 96.5583 6.26241C95.916 6.26241 95.3272 6.42298 94.7919 6.74413C94.2567 7.04999 93.8285 7.52408 93.5073 8.16638C93.2015 8.80869 93.0485 9.61922 93.0485 10.598C93.0485 11.5614 93.2015 12.3643 93.5073 13.0066C93.8285 13.6489 94.2567 14.1307 94.7919 14.4518C95.3272 14.7577 95.916 14.9106 96.5583 14.9106ZM104.657 21.1043V4.65664H106.699V6.67532H106.745C107.005 6.14006 107.341 5.70421 107.754 5.36776C108.167 5.03132 108.626 4.78663 109.13 4.6337C109.65 4.46548 110.17 4.38137 110.69 4.38137C111.7 4.38137 112.594 4.62605 113.374 5.11543C114.169 5.60481 114.796 6.31593 115.255 7.2488C115.714 8.18168 115.943 9.29806 115.943 10.598C115.943 11.8979 115.714 13.0143 115.255 13.9471C114.812 14.8647 114.192 15.5682 113.397 16.0576C112.617 16.5469 111.723 16.7916 110.713 16.7916C110.209 16.7916 109.712 16.7152 109.222 16.5622C108.748 16.4093 108.305 16.1723 107.892 15.8511C107.494 15.5147 107.158 15.0941 106.882 14.5894H106.859V21.1043H104.657ZM110.186 14.9106C110.858 14.9106 111.447 14.75 111.952 14.4289C112.472 14.1077 112.885 13.626 113.191 12.9837C113.497 12.3414 113.649 11.5461 113.649 10.598C113.649 9.63451 113.497 8.83927 113.191 8.21226C112.885 7.56996 112.472 7.08823 111.952 6.76707C111.447 6.43063 110.858 6.26241 110.186 6.26241C109.528 6.26241 108.932 6.43063 108.396 6.76707C107.876 7.08823 107.463 7.56996 107.158 8.21226C106.852 8.83927 106.699 9.63451 106.699 10.598C106.699 11.5308 106.852 12.3184 107.158 12.9607C107.479 13.603 107.899 14.0924 108.419 14.4289C108.955 14.75 109.543 14.9106 110.186 14.9106ZM128.725 16.5164V2.1333L129.345 2.66091L124.252 8.02875L122.967 6.69826L129.689 -7.5577e-05L136.387 6.69826L135.102 8.02875L130.033 2.66091L130.629 2.1333V16.5164H128.725Z" fill="black"/>
</svg>
