<svg width="20" height="20" viewBox="0 0 20 20" fill="none" xmlns="http://www.w3.org/2000/svg">
<path d="M9.68361 0.504639V18.8562M18.8594 9.68043H0.507813M2.57825 4.03379C4.65211 5.51331 7.13609 6.30855 9.68361 6.30855C12.2311 6.30855 14.7151 5.51331 16.789 4.03379M16.789 15.3271C14.7151 13.8476 12.2311 13.0523 9.68361 13.0523C7.13609 13.0523 4.65211 13.8476 2.57825 15.3271M8.97778 0.739915C7.67019 1.8442 6.61931 3.22051 5.89846 4.77281C5.17761 6.3251 4.80416 8.01599 4.80416 9.72749C4.80416 11.439 5.17761 13.1299 5.89846 14.6822C6.61931 16.2345 7.67019 17.6108 8.97778 18.7151M10.3894 18.7151C11.697 17.6108 12.7479 16.2345 13.4688 14.6822C14.1896 13.1299 14.5631 11.439 14.5631 9.72749C14.5631 8.01599 14.1896 6.3251 13.4688 4.77281C12.7479 3.22051 11.697 1.8442 10.3894 0.739915M9.63655 0.504639C7.20709 0.517098 4.88173 1.49254 3.17043 3.21705C1.45914 4.94156 0.501613 7.27435 0.507843 9.70384C0.514072 12.1333 1.48355 14.4612 3.20366 16.1769C4.92378 17.8926 7.25411 18.8561 9.68361 18.8561C12.1131 18.8561 14.4434 17.8926 16.1636 16.1769C17.8837 14.4612 18.8531 12.1333 18.8594 9.70384C18.8656 7.27435 17.9081 4.94156 16.1968 3.21705C14.4855 1.49254 12.1601 0.517098 9.73066 0.504639H9.63655Z" stroke="black" stroke-width="1.00934"/>
</svg>
